<svg class="marker" height="60" viewBox="-91 0 512 512.00038" width="60" xmlns="http://www.w3.org/2000/svg"><path d="m286.191406 50.855469.003906-.011719-.410156-.238281c-.0625-.035157-.121094-.074219-.183594-.105469l-71.175781-41.058594c-22.378906-13.566406-51.652343-13-83.625 4.878906-72.070312 40.292969-130.800781 151.699219-130.800781 247.488282 0 32.410156 6.726562 58.835937 18.414062 77.964844l77.105469 120.09375c2.234375 3.476562 4.898438 6.007812 7.863281 7.683593v.007813l71.515626 41.242187v-.003906c17.464843 11.503906 46.703124-9.003906 60.214843-45.644531l77.105469-209.128906c12.03125-33.582032 18.808594-68.832032 18.398438-102.082032-.617188-50.058594-17.742188-85.480468-44.425782-101.085937zm0 0" fill="#b5292a"/><path d="m312.21875 254.023438c12.03125-33.582032 18.804688-68.832032 18.398438-102.082032-1.128907-91.835937-57.800782-134.472656-127.171876-95.6875-72.066406 40.292969-130.796874 151.699219-130.796874 247.488282 0 32.410156 6.726562 58.835937 18.414062 77.964843l77.105469 120.09375c15.453125 24.070313 51.488281 3.265625 66.945312-38.648437zm0 0" fill="#e84c3d"/><path d="m271.480469 152.28125.007812-.011719-26.617187-15.21875c-11.621094-6.582031-26.71875-5.917969-43.230469 3.617188-36.699219 21.1875-66.449219 78.035156-66.449219 126.964843 0 26.5 8.734375 45.222657 22.566406 53.476563l26.207032 15.03125.011718-.027344c11.648438 6.695313 26.816407 6.078125 43.417969-3.507812 36.699219-21.1875 66.449219-78.035157 66.449219-126.96875 0-26.371094-8.648438-45.042969-22.363281-53.355469zm0 0" fill="#d1d1d1"/><path d="m293.847656 205.636719c0 48.933593-29.753906 105.78125-66.453125 126.96875s-66.449219-1.304688-66.449219-50.238281c0-48.933594 29.75-105.777344 66.449219-126.964844s66.453125 1.304687 66.453125 50.234375zm0 0" fill="#fff"/></svg>